<mxfile host="app.diagrams.net" agent="Mozilla/5.0 (Windows NT 10.0; Win64; x64) AppleWebKit/537.36 (KHTML, like Gecko) Chrome/131.0.0.0 Safari/537.36" version="26.0.4">
  <diagram name="Page-1" id="2YBvvXClWsGukQMizWep">
    <mxGraphModel dx="1509" dy="821" grid="1" gridSize="10" guides="1" tooltips="1" connect="1" arrows="1" fold="1" page="1" pageScale="1" pageWidth="850" pageHeight="1100" math="0" shadow="0">
      <root>
        <mxCell id="0" />
        <mxCell id="1" parent="0" />
        <mxCell id="aM9ryv3xv72pqoxQDRHE-1" value="MonitorUpdaterManagerSample" style="shape=umlLifeline;perimeter=lifelinePerimeter;whiteSpace=wrap;html=1;container=0;dropTarget=0;collapsible=0;recursiveResize=0;outlineConnect=0;portConstraint=eastwest;newEdgeStyle={&quot;edgeStyle&quot;:&quot;elbowEdgeStyle&quot;,&quot;elbow&quot;:&quot;vertical&quot;,&quot;curved&quot;:0,&quot;rounded&quot;:0};size=40;" parent="1" vertex="1">
          <mxGeometry x="30" y="50" width="200" height="1630" as="geometry" />
        </mxCell>
        <mxCell id="aM9ryv3xv72pqoxQDRHE-2" value="" style="html=1;points=[];perimeter=orthogonalPerimeter;outlineConnect=0;targetShapes=umlLifeline;portConstraint=eastwest;newEdgeStyle={&quot;edgeStyle&quot;:&quot;elbowEdgeStyle&quot;,&quot;elbow&quot;:&quot;vertical&quot;,&quot;curved&quot;:0,&quot;rounded&quot;:0};" parent="aM9ryv3xv72pqoxQDRHE-1" vertex="1">
          <mxGeometry x="95" y="70" width="10" height="1530" as="geometry" />
        </mxCell>
        <mxCell id="aM9ryv3xv72pqoxQDRHE-3" value="UpdateMonitor" style="html=1;verticalAlign=bottom;startArrow=oval;endArrow=block;startSize=8;edgeStyle=elbowEdgeStyle;elbow=vertical;curved=0;rounded=0;" parent="aM9ryv3xv72pqoxQDRHE-1" target="aM9ryv3xv72pqoxQDRHE-2" edge="1">
          <mxGeometry relative="1" as="geometry">
            <mxPoint x="-15" y="70" as="sourcePoint" />
          </mxGeometry>
        </mxCell>
        <mxCell id="HkFuR2oX_R5OGjLkQj5L-22" value="" style="html=1;points=[[0,0,0,0,5],[0,1,0,0,-5],[1,0,0,0,5],[1,1,0,0,-5]];perimeter=orthogonalPerimeter;outlineConnect=0;targetShapes=umlLifeline;portConstraint=eastwest;newEdgeStyle={&quot;curved&quot;:0,&quot;rounded&quot;:0};" vertex="1" parent="aM9ryv3xv72pqoxQDRHE-1">
          <mxGeometry x="100" y="98" width="10" height="40" as="geometry" />
        </mxCell>
        <mxCell id="HkFuR2oX_R5OGjLkQj5L-23" value="Termina proceso &quot;psample&quot;" style="html=1;align=left;spacingLeft=2;endArrow=block;rounded=0;edgeStyle=orthogonalEdgeStyle;curved=0;rounded=0;" edge="1" target="HkFuR2oX_R5OGjLkQj5L-22" parent="aM9ryv3xv72pqoxQDRHE-1" source="aM9ryv3xv72pqoxQDRHE-2">
          <mxGeometry x="0.0135" relative="1" as="geometry">
            <mxPoint x="145" y="140" as="sourcePoint" />
            <Array as="points">
              <mxPoint x="170" y="80" />
              <mxPoint x="170" y="103" />
            </Array>
            <mxPoint as="offset" />
          </mxGeometry>
        </mxCell>
        <mxCell id="HkFuR2oX_R5OGjLkQj5L-26" value="" style="html=1;points=[[0,0,0,0,5],[0,1,0,0,-5],[1,0,0,0,5],[1,1,0,0,-5]];perimeter=orthogonalPerimeter;outlineConnect=0;targetShapes=umlLifeline;portConstraint=eastwest;newEdgeStyle={&quot;curved&quot;:0,&quot;rounded&quot;:0};" vertex="1" parent="aM9ryv3xv72pqoxQDRHE-1">
          <mxGeometry x="100" y="160" width="10" height="40" as="geometry" />
        </mxCell>
        <mxCell id="HkFuR2oX_R5OGjLkQj5L-27" value="Crea directorio backup" style="html=1;align=left;spacingLeft=2;endArrow=block;rounded=0;edgeStyle=orthogonalEdgeStyle;curved=0;rounded=0;" edge="1" target="HkFuR2oX_R5OGjLkQj5L-26" parent="aM9ryv3xv72pqoxQDRHE-1" source="aM9ryv3xv72pqoxQDRHE-2">
          <mxGeometry relative="1" as="geometry">
            <mxPoint x="230" y="170" as="sourcePoint" />
            <Array as="points">
              <mxPoint x="170" y="150" />
              <mxPoint x="170" y="180" />
            </Array>
          </mxGeometry>
        </mxCell>
        <mxCell id="HkFuR2oX_R5OGjLkQj5L-78" value="" style="html=1;points=[[0,0,0,0,5],[0,1,0,0,-5],[1,0,0,0,5],[1,1,0,0,-5]];perimeter=orthogonalPerimeter;outlineConnect=0;targetShapes=umlLifeline;portConstraint=eastwest;newEdgeStyle={&quot;curved&quot;:0,&quot;rounded&quot;:0};" vertex="1" parent="aM9ryv3xv72pqoxQDRHE-1">
          <mxGeometry x="100" y="1310" width="10" height="90" as="geometry" />
        </mxCell>
        <mxCell id="HkFuR2oX_R5OGjLkQj5L-79" value="Validar si existe&amp;nbsp;&lt;div&gt;un error en el proceso&lt;/div&gt;" style="html=1;align=left;spacingLeft=2;endArrow=block;rounded=0;edgeStyle=orthogonalEdgeStyle;curved=0;rounded=0;" edge="1" target="HkFuR2oX_R5OGjLkQj5L-78" parent="aM9ryv3xv72pqoxQDRHE-1">
          <mxGeometry relative="1" as="geometry">
            <mxPoint x="110" y="1300" as="sourcePoint" />
            <Array as="points">
              <mxPoint x="190" y="1300" />
              <mxPoint x="190" y="1350" />
            </Array>
          </mxGeometry>
        </mxCell>
        <mxCell id="aM9ryv3xv72pqoxQDRHE-5" value="FileManager" style="shape=umlLifeline;perimeter=lifelinePerimeter;whiteSpace=wrap;html=1;container=0;dropTarget=0;collapsible=0;recursiveResize=0;outlineConnect=0;portConstraint=eastwest;newEdgeStyle={&quot;edgeStyle&quot;:&quot;elbowEdgeStyle&quot;,&quot;elbow&quot;:&quot;vertical&quot;,&quot;curved&quot;:0,&quot;rounded&quot;:0};" parent="1" vertex="1">
          <mxGeometry x="330" y="50" width="100" height="1320" as="geometry" />
        </mxCell>
        <mxCell id="aM9ryv3xv72pqoxQDRHE-6" value="" style="html=1;points=[];perimeter=orthogonalPerimeter;outlineConnect=0;targetShapes=umlLifeline;portConstraint=eastwest;newEdgeStyle={&quot;edgeStyle&quot;:&quot;elbowEdgeStyle&quot;,&quot;elbow&quot;:&quot;vertical&quot;,&quot;curved&quot;:0,&quot;rounded&quot;:0};" parent="aM9ryv3xv72pqoxQDRHE-5" vertex="1">
          <mxGeometry x="45" y="192" width="10" height="1108" as="geometry" />
        </mxCell>
        <mxCell id="HkFuR2oX_R5OGjLkQj5L-1" value="FileUpdater" style="shape=umlLifeline;perimeter=lifelinePerimeter;whiteSpace=wrap;html=1;container=0;dropTarget=0;collapsible=0;recursiveResize=0;outlineConnect=0;portConstraint=eastwest;newEdgeStyle={&quot;edgeStyle&quot;:&quot;elbowEdgeStyle&quot;,&quot;elbow&quot;:&quot;vertical&quot;,&quot;curved&quot;:0,&quot;rounded&quot;:0};" vertex="1" parent="1">
          <mxGeometry x="500" y="40" width="100" height="1330" as="geometry" />
        </mxCell>
        <mxCell id="HkFuR2oX_R5OGjLkQj5L-2" value="" style="html=1;points=[];perimeter=orthogonalPerimeter;outlineConnect=0;targetShapes=umlLifeline;portConstraint=eastwest;newEdgeStyle={&quot;edgeStyle&quot;:&quot;elbowEdgeStyle&quot;,&quot;elbow&quot;:&quot;vertical&quot;,&quot;curved&quot;:0,&quot;rounded&quot;:0};" vertex="1" parent="HkFuR2oX_R5OGjLkQj5L-1">
          <mxGeometry x="45" y="199" width="10" height="1101" as="geometry" />
        </mxCell>
        <mxCell id="HkFuR2oX_R5OGjLkQj5L-5" value="Files source" style="shape=umlLifeline;perimeter=lifelinePerimeter;whiteSpace=wrap;html=1;container=0;dropTarget=0;collapsible=0;recursiveResize=0;outlineConnect=0;portConstraint=eastwest;newEdgeStyle={&quot;edgeStyle&quot;:&quot;elbowEdgeStyle&quot;,&quot;elbow&quot;:&quot;vertical&quot;,&quot;curved&quot;:0,&quot;rounded&quot;:0};" vertex="1" parent="1">
          <mxGeometry x="680" y="190" width="100" height="150" as="geometry" />
        </mxCell>
        <mxCell id="HkFuR2oX_R5OGjLkQj5L-6" value="" style="html=1;points=[];perimeter=orthogonalPerimeter;outlineConnect=0;targetShapes=umlLifeline;portConstraint=eastwest;newEdgeStyle={&quot;edgeStyle&quot;:&quot;elbowEdgeStyle&quot;,&quot;elbow&quot;:&quot;vertical&quot;,&quot;curved&quot;:0,&quot;rounded&quot;:0};" vertex="1" parent="HkFuR2oX_R5OGjLkQj5L-5">
          <mxGeometry x="45" y="59" width="10" height="50" as="geometry" />
        </mxCell>
        <mxCell id="HkFuR2oX_R5OGjLkQj5L-12" value="Files *.eini" style="shape=umlLifeline;perimeter=lifelinePerimeter;whiteSpace=wrap;html=1;container=0;dropTarget=0;collapsible=0;recursiveResize=0;outlineConnect=0;portConstraint=eastwest;newEdgeStyle={&quot;edgeStyle&quot;:&quot;elbowEdgeStyle&quot;,&quot;elbow&quot;:&quot;vertical&quot;,&quot;curved&quot;:0,&quot;rounded&quot;:0};" vertex="1" parent="1">
          <mxGeometry x="661" y="390" width="100" height="160" as="geometry" />
        </mxCell>
        <mxCell id="HkFuR2oX_R5OGjLkQj5L-13" value="" style="html=1;points=[];perimeter=orthogonalPerimeter;outlineConnect=0;targetShapes=umlLifeline;portConstraint=eastwest;newEdgeStyle={&quot;edgeStyle&quot;:&quot;elbowEdgeStyle&quot;,&quot;elbow&quot;:&quot;vertical&quot;,&quot;curved&quot;:0,&quot;rounded&quot;:0};" vertex="1" parent="HkFuR2oX_R5OGjLkQj5L-12">
          <mxGeometry x="45" y="80" width="10" height="60" as="geometry" />
        </mxCell>
        <mxCell id="HkFuR2oX_R5OGjLkQj5L-16" value="Loop (procesar archivos)" style="shape=umlFrame;whiteSpace=wrap;html=1;pointerEvents=0;width=90;height=40;" vertex="1" parent="1">
          <mxGeometry x="460" y="310" width="720" height="970" as="geometry" />
        </mxCell>
        <mxCell id="HkFuR2oX_R5OGjLkQj5L-32" value="UpdateFiles" style="html=1;verticalAlign=bottom;endArrow=block;curved=0;rounded=0;exitX=1;exitY=1;exitDx=0;exitDy=-5;exitPerimeter=0;" edge="1" parent="1" source="HkFuR2oX_R5OGjLkQj5L-26" target="aM9ryv3xv72pqoxQDRHE-5">
          <mxGeometry width="80" relative="1" as="geometry">
            <mxPoint x="220" y="350" as="sourcePoint" />
            <mxPoint x="300" y="350" as="targetPoint" />
          </mxGeometry>
        </mxCell>
        <mxCell id="HkFuR2oX_R5OGjLkQj5L-33" value="" style="edgeStyle=elbowEdgeStyle;rounded=0;orthogonalLoop=1;jettySize=auto;html=1;elbow=vertical;curved=0;" edge="1" parent="1" source="aM9ryv3xv72pqoxQDRHE-6" target="HkFuR2oX_R5OGjLkQj5L-1">
          <mxGeometry relative="1" as="geometry">
            <Array as="points">
              <mxPoint x="450" y="250" />
            </Array>
          </mxGeometry>
        </mxCell>
        <mxCell id="HkFuR2oX_R5OGjLkQj5L-34" value="" style="edgeStyle=elbowEdgeStyle;rounded=0;orthogonalLoop=1;jettySize=auto;html=1;elbow=vertical;curved=0;" edge="1" parent="1" source="HkFuR2oX_R5OGjLkQj5L-2" target="HkFuR2oX_R5OGjLkQj5L-5">
          <mxGeometry relative="1" as="geometry">
            <Array as="points">
              <mxPoint x="620" y="260" />
            </Array>
          </mxGeometry>
        </mxCell>
        <mxCell id="HkFuR2oX_R5OGjLkQj5L-35" value="Obtener archivos" style="edgeLabel;html=1;align=center;verticalAlign=middle;resizable=0;points=[];" vertex="1" connectable="0" parent="HkFuR2oX_R5OGjLkQj5L-34">
          <mxGeometry x="0.1117" y="-1" relative="1" as="geometry">
            <mxPoint as="offset" />
          </mxGeometry>
        </mxCell>
        <mxCell id="HkFuR2oX_R5OGjLkQj5L-36" value="return Archivos" style="html=1;verticalAlign=bottom;endArrow=open;dashed=1;endSize=8;curved=0;rounded=0;" edge="1" parent="1" source="HkFuR2oX_R5OGjLkQj5L-5" target="HkFuR2oX_R5OGjLkQj5L-1">
          <mxGeometry relative="1" as="geometry">
            <mxPoint x="680" y="340" as="sourcePoint" />
            <mxPoint x="600" y="340" as="targetPoint" />
            <Array as="points">
              <mxPoint x="670" y="300" />
            </Array>
          </mxGeometry>
        </mxCell>
        <mxCell id="HkFuR2oX_R5OGjLkQj5L-37" value="Condicion (es archivo .eini)" style="shape=umlFrame;whiteSpace=wrap;html=1;pointerEvents=0;width=120;height=30;" vertex="1" parent="1">
          <mxGeometry x="520" y="370" width="250" height="180" as="geometry" />
        </mxCell>
        <mxCell id="HkFuR2oX_R5OGjLkQj5L-38" value="Ejecuta archivo" style="html=1;verticalAlign=bottom;endArrow=block;curved=0;rounded=0;" edge="1" parent="1" target="HkFuR2oX_R5OGjLkQj5L-13">
          <mxGeometry width="80" relative="1" as="geometry">
            <mxPoint x="555" y="470" as="sourcePoint" />
            <mxPoint x="830" y="448" as="targetPoint" />
            <Array as="points">
              <mxPoint x="580" y="470" />
            </Array>
          </mxGeometry>
        </mxCell>
        <mxCell id="HkFuR2oX_R5OGjLkQj5L-42" value="Files *.*" style="shape=umlLifeline;perimeter=lifelinePerimeter;whiteSpace=wrap;html=1;container=0;dropTarget=0;collapsible=0;recursiveResize=0;outlineConnect=0;portConstraint=eastwest;newEdgeStyle={&quot;edgeStyle&quot;:&quot;elbowEdgeStyle&quot;,&quot;elbow&quot;:&quot;vertical&quot;,&quot;curved&quot;:0,&quot;rounded&quot;:0};" vertex="1" parent="1">
          <mxGeometry x="791" y="190" width="100" height="1490" as="geometry" />
        </mxCell>
        <mxCell id="HkFuR2oX_R5OGjLkQj5L-43" value="" style="html=1;points=[];perimeter=orthogonalPerimeter;outlineConnect=0;targetShapes=umlLifeline;portConstraint=eastwest;newEdgeStyle={&quot;edgeStyle&quot;:&quot;elbowEdgeStyle&quot;,&quot;elbow&quot;:&quot;vertical&quot;,&quot;curved&quot;:0,&quot;rounded&quot;:0};" vertex="1" parent="HkFuR2oX_R5OGjLkQj5L-42">
          <mxGeometry x="45" y="50" width="10" height="1070" as="geometry" />
        </mxCell>
        <mxCell id="HkFuR2oX_R5OGjLkQj5L-47" value="" style="html=1;points=[[0,0,0,0,5],[0,1,0,0,-5],[1,0,0,0,5],[1,1,0,0,-5]];perimeter=orthogonalPerimeter;outlineConnect=0;targetShapes=umlLifeline;portConstraint=eastwest;newEdgeStyle={&quot;curved&quot;:0,&quot;rounded&quot;:0};" vertex="1" parent="HkFuR2oX_R5OGjLkQj5L-42">
          <mxGeometry x="52.5" y="488" width="10" height="40" as="geometry" />
        </mxCell>
        <mxCell id="HkFuR2oX_R5OGjLkQj5L-48" value="Backup y&amp;nbsp;&lt;div&gt;cambio de extension (.del)&lt;/div&gt;" style="html=1;align=left;spacingLeft=2;endArrow=block;rounded=0;edgeStyle=orthogonalEdgeStyle;curved=0;rounded=0;" edge="1" target="HkFuR2oX_R5OGjLkQj5L-47" parent="HkFuR2oX_R5OGjLkQj5L-42">
          <mxGeometry relative="1" as="geometry">
            <mxPoint x="57.5" y="468" as="sourcePoint" />
            <Array as="points">
              <mxPoint x="87.5" y="498" />
            </Array>
          </mxGeometry>
        </mxCell>
        <mxCell id="HkFuR2oX_R5OGjLkQj5L-49" value="" style="html=1;points=[[0,0,0,0,5],[0,1,0,0,-5],[1,0,0,0,5],[1,1,0,0,-5]];perimeter=orthogonalPerimeter;outlineConnect=0;targetShapes=umlLifeline;portConstraint=eastwest;newEdgeStyle={&quot;curved&quot;:0,&quot;rounded&quot;:0};" vertex="1" parent="HkFuR2oX_R5OGjLkQj5L-42">
          <mxGeometry x="52.5" y="538" width="10" height="40" as="geometry" />
        </mxCell>
        <mxCell id="HkFuR2oX_R5OGjLkQj5L-50" value="Copia archivo a folder destino" style="html=1;align=left;spacingLeft=2;endArrow=block;rounded=0;edgeStyle=orthogonalEdgeStyle;curved=0;rounded=0;" edge="1" parent="HkFuR2oX_R5OGjLkQj5L-42" target="HkFuR2oX_R5OGjLkQj5L-49">
          <mxGeometry relative="1" as="geometry">
            <mxPoint x="57.5" y="518" as="sourcePoint" />
            <Array as="points">
              <mxPoint x="87.5" y="548" />
            </Array>
          </mxGeometry>
        </mxCell>
        <mxCell id="HkFuR2oX_R5OGjLkQj5L-58" value="" style="html=1;points=[[0,0,0,0,5],[0,1,0,0,-5],[1,0,0,0,5],[1,1,0,0,-5]];perimeter=orthogonalPerimeter;outlineConnect=0;targetShapes=umlLifeline;portConstraint=eastwest;newEdgeStyle={&quot;curved&quot;:0,&quot;rounded&quot;:0};" vertex="1" parent="HkFuR2oX_R5OGjLkQj5L-42">
          <mxGeometry x="52.5" y="630" width="10" height="40" as="geometry" />
        </mxCell>
        <mxCell id="HkFuR2oX_R5OGjLkQj5L-60" value="" style="html=1;points=[[0,0,0,0,5],[0,1,0,0,-5],[1,0,0,0,5],[1,1,0,0,-5]];perimeter=orthogonalPerimeter;outlineConnect=0;targetShapes=umlLifeline;portConstraint=eastwest;newEdgeStyle={&quot;curved&quot;:0,&quot;rounded&quot;:0};" vertex="1" parent="HkFuR2oX_R5OGjLkQj5L-42">
          <mxGeometry x="50" y="680" width="10" height="40" as="geometry" />
        </mxCell>
        <mxCell id="HkFuR2oX_R5OGjLkQj5L-59" value="Backup y&amp;nbsp;&lt;div&gt;cambio de extension (.upd)&lt;/div&gt;" style="html=1;align=left;spacingLeft=2;endArrow=block;rounded=0;edgeStyle=orthogonalEdgeStyle;curved=0;rounded=0;" edge="1" parent="HkFuR2oX_R5OGjLkQj5L-42" target="HkFuR2oX_R5OGjLkQj5L-58">
          <mxGeometry x="-0.0046" relative="1" as="geometry">
            <mxPoint x="55" y="610" as="sourcePoint" />
            <Array as="points">
              <mxPoint x="98" y="610" />
              <mxPoint x="98" y="640" />
            </Array>
            <mxPoint as="offset" />
          </mxGeometry>
        </mxCell>
        <mxCell id="HkFuR2oX_R5OGjLkQj5L-61" value="Merge a archivo XDT&lt;div&gt;en folder destino&lt;/div&gt;" style="html=1;align=left;spacingLeft=2;endArrow=block;rounded=0;edgeStyle=orthogonalEdgeStyle;curved=0;rounded=0;" edge="1" parent="HkFuR2oX_R5OGjLkQj5L-42" target="HkFuR2oX_R5OGjLkQj5L-60" source="HkFuR2oX_R5OGjLkQj5L-58">
          <mxGeometry x="0.0044" relative="1" as="geometry">
            <mxPoint x="67.5" y="660" as="sourcePoint" />
            <Array as="points">
              <mxPoint x="98" y="650" />
              <mxPoint x="98" y="690" />
            </Array>
            <mxPoint as="offset" />
          </mxGeometry>
        </mxCell>
        <mxCell id="HkFuR2oX_R5OGjLkQj5L-81" value="" style="html=1;points=[[0,0,0,0,5],[0,1,0,0,-5],[1,0,0,0,5],[1,1,0,0,-5]];perimeter=orthogonalPerimeter;outlineConnect=0;targetShapes=umlLifeline;portConstraint=eastwest;newEdgeStyle={&quot;curved&quot;:0,&quot;rounded&quot;:0};" vertex="1" parent="HkFuR2oX_R5OGjLkQj5L-42">
          <mxGeometry x="45" y="1207" width="10" height="70" as="geometry" />
        </mxCell>
        <mxCell id="HkFuR2oX_R5OGjLkQj5L-86" value="" style="html=1;points=[[0,0,0,0,5],[0,1,0,0,-5],[1,0,0,0,5],[1,1,0,0,-5]];perimeter=orthogonalPerimeter;outlineConnect=0;targetShapes=umlLifeline;portConstraint=eastwest;newEdgeStyle={&quot;curved&quot;:0,&quot;rounded&quot;:0};" vertex="1" parent="HkFuR2oX_R5OGjLkQj5L-42">
          <mxGeometry x="45" y="1351" width="10" height="80" as="geometry" />
        </mxCell>
        <mxCell id="HkFuR2oX_R5OGjLkQj5L-44" value="Condicion (no archivo .eini, no es archivo .end)" style="shape=umlFrame;whiteSpace=wrap;html=1;pointerEvents=0;width=190;height=40;" vertex="1" parent="1">
          <mxGeometry x="520" y="560" width="590" height="650" as="geometry" />
        </mxCell>
        <mxCell id="HkFuR2oX_R5OGjLkQj5L-45" value="Procesa archivo" style="html=1;verticalAlign=bottom;endArrow=block;curved=0;rounded=0;" edge="1" parent="1">
          <mxGeometry width="80" relative="1" as="geometry">
            <mxPoint x="555" y="639" as="sourcePoint" />
            <mxPoint x="835" y="639" as="targetPoint" />
            <Array as="points">
              <mxPoint x="580" y="639" />
            </Array>
          </mxGeometry>
        </mxCell>
        <mxCell id="HkFuR2oX_R5OGjLkQj5L-46" value="Condicion (archivo .add)" style="shape=umlFrame;whiteSpace=wrap;html=1;pointerEvents=0;width=100;height=30;" vertex="1" parent="1">
          <mxGeometry x="700" y="647" width="350" height="130" as="geometry" />
        </mxCell>
        <mxCell id="HkFuR2oX_R5OGjLkQj5L-51" value="Condicion (archivo .xmrg)" style="shape=umlFrame;whiteSpace=wrap;html=1;pointerEvents=0;width=100;height=30;" vertex="1" parent="1">
          <mxGeometry x="700" y="788" width="350" height="129" as="geometry" />
        </mxCell>
        <mxCell id="HkFuR2oX_R5OGjLkQj5L-62" value="" style="html=1;points=[[0,0,0,0,5],[0,1,0,0,-5],[1,0,0,0,5],[1,1,0,0,-5]];perimeter=orthogonalPerimeter;outlineConnect=0;targetShapes=umlLifeline;portConstraint=eastwest;newEdgeStyle={&quot;curved&quot;:0,&quot;rounded&quot;:0};" vertex="1" parent="1">
          <mxGeometry x="842.5" y="955" width="10" height="40" as="geometry" />
        </mxCell>
        <mxCell id="HkFuR2oX_R5OGjLkQj5L-63" value="" style="html=1;points=[[0,0,0,0,5],[0,1,0,0,-5],[1,0,0,0,5],[1,1,0,0,-5]];perimeter=orthogonalPerimeter;outlineConnect=0;targetShapes=umlLifeline;portConstraint=eastwest;newEdgeStyle={&quot;curved&quot;:0,&quot;rounded&quot;:0};" vertex="1" parent="1">
          <mxGeometry x="840" y="1005" width="10" height="40" as="geometry" />
        </mxCell>
        <mxCell id="HkFuR2oX_R5OGjLkQj5L-64" value="Backup y&amp;nbsp;&lt;div&gt;cambio de extension (.add)&lt;/div&gt;" style="html=1;align=left;spacingLeft=2;endArrow=block;rounded=0;edgeStyle=orthogonalEdgeStyle;curved=0;rounded=0;" edge="1" parent="1" target="HkFuR2oX_R5OGjLkQj5L-62">
          <mxGeometry x="-0.0046" relative="1" as="geometry">
            <mxPoint x="845" y="935" as="sourcePoint" />
            <Array as="points">
              <mxPoint x="888" y="935" />
              <mxPoint x="888" y="965" />
            </Array>
            <mxPoint as="offset" />
          </mxGeometry>
        </mxCell>
        <mxCell id="HkFuR2oX_R5OGjLkQj5L-65" value="Se borra archivo&amp;nbsp;&lt;div&gt;de folder destino&lt;/div&gt;" style="html=1;align=left;spacingLeft=2;endArrow=block;rounded=0;edgeStyle=orthogonalEdgeStyle;curved=0;rounded=0;" edge="1" parent="1" source="HkFuR2oX_R5OGjLkQj5L-62" target="HkFuR2oX_R5OGjLkQj5L-63">
          <mxGeometry x="0.0044" relative="1" as="geometry">
            <mxPoint x="857.5" y="985" as="sourcePoint" />
            <Array as="points">
              <mxPoint x="888" y="975" />
              <mxPoint x="888" y="1015" />
            </Array>
            <mxPoint as="offset" />
          </mxGeometry>
        </mxCell>
        <mxCell id="HkFuR2oX_R5OGjLkQj5L-66" value="Condicion (archivo .del)" style="shape=umlFrame;whiteSpace=wrap;html=1;pointerEvents=0;width=100;height=30;" vertex="1" parent="1">
          <mxGeometry x="700" y="929" width="350" height="128" as="geometry" />
        </mxCell>
        <mxCell id="HkFuR2oX_R5OGjLkQj5L-67" value="" style="html=1;points=[[0,0,0,0,5],[0,1,0,0,-5],[1,0,0,0,5],[1,1,0,0,-5]];perimeter=orthogonalPerimeter;outlineConnect=0;targetShapes=umlLifeline;portConstraint=eastwest;newEdgeStyle={&quot;curved&quot;:0,&quot;rounded&quot;:0};" vertex="1" parent="1">
          <mxGeometry x="842.5" y="1093" width="10" height="40" as="geometry" />
        </mxCell>
        <mxCell id="HkFuR2oX_R5OGjLkQj5L-69" value="Se ejecuta archivo" style="html=1;align=left;spacingLeft=2;endArrow=block;rounded=0;edgeStyle=orthogonalEdgeStyle;curved=0;rounded=0;" edge="1" parent="1" target="HkFuR2oX_R5OGjLkQj5L-67">
          <mxGeometry x="-0.0046" relative="1" as="geometry">
            <mxPoint x="845" y="1073" as="sourcePoint" />
            <Array as="points">
              <mxPoint x="888" y="1073" />
              <mxPoint x="888" y="1103" />
            </Array>
            <mxPoint as="offset" />
          </mxGeometry>
        </mxCell>
        <mxCell id="HkFuR2oX_R5OGjLkQj5L-71" value="Condicion (archivo .exc)" style="shape=umlFrame;whiteSpace=wrap;html=1;pointerEvents=0;width=100;height=30;" vertex="1" parent="1">
          <mxGeometry x="700" y="1067" width="350" height="128" as="geometry" />
        </mxCell>
        <mxCell id="HkFuR2oX_R5OGjLkQj5L-76" value="Resultado de procesar archivo" style="html=1;verticalAlign=bottom;endArrow=open;dashed=1;endSize=8;curved=0;rounded=0;" edge="1" parent="1">
          <mxGeometry relative="1" as="geometry">
            <mxPoint x="840" y="1299" as="sourcePoint" />
            <mxPoint x="550" y="1299" as="targetPoint" />
          </mxGeometry>
        </mxCell>
        <mxCell id="HkFuR2oX_R5OGjLkQj5L-82" value="" style="edgeStyle=orthogonalEdgeStyle;rounded=0;orthogonalLoop=1;jettySize=auto;html=1;curved=0;" edge="1" parent="1" source="HkFuR2oX_R5OGjLkQj5L-78" target="HkFuR2oX_R5OGjLkQj5L-81">
          <mxGeometry relative="1" as="geometry">
            <Array as="points">
              <mxPoint x="660" y="1420" />
              <mxPoint x="660" y="1420" />
            </Array>
          </mxGeometry>
        </mxCell>
        <mxCell id="HkFuR2oX_R5OGjLkQj5L-83" value="Ejecuta rollback" style="edgeLabel;html=1;align=center;verticalAlign=bottom;resizable=0;points=[];labelPosition=center;verticalLabelPosition=top;" vertex="1" connectable="0" parent="HkFuR2oX_R5OGjLkQj5L-82">
          <mxGeometry x="0.0292" y="2" relative="1" as="geometry">
            <mxPoint as="offset" />
          </mxGeometry>
        </mxCell>
        <mxCell id="HkFuR2oX_R5OGjLkQj5L-84" value="Condicion (existe error)" style="shape=umlFrame;whiteSpace=wrap;html=1;pointerEvents=0;width=90;height=50;" vertex="1" parent="1">
          <mxGeometry x="20" y="1390" width="900" height="100" as="geometry" />
        </mxCell>
        <mxCell id="HkFuR2oX_R5OGjLkQj5L-85" value="" style="html=1;verticalAlign=bottom;endArrow=open;dashed=1;endSize=8;curved=0;rounded=0;entryX=1;entryY=1;entryDx=0;entryDy=-5;entryPerimeter=0;" edge="1" parent="1" source="HkFuR2oX_R5OGjLkQj5L-81" target="HkFuR2oX_R5OGjLkQj5L-78">
          <mxGeometry relative="1" as="geometry">
            <mxPoint x="780" y="1420" as="sourcePoint" />
            <mxPoint x="700" y="1420" as="targetPoint" />
          </mxGeometry>
        </mxCell>
        <mxCell id="HkFuR2oX_R5OGjLkQj5L-87" value="Elimina carpetas y directorios" style="html=1;verticalAlign=bottom;startArrow=oval;endArrow=block;startSize=8;curved=0;rounded=0;entryX=0;entryY=0;entryDx=0;entryDy=5;" edge="1" parent="1" source="aM9ryv3xv72pqoxQDRHE-1">
          <mxGeometry relative="1" as="geometry">
            <mxPoint x="118.96153846153857" y="1555" as="sourcePoint" />
            <mxPoint x="836" y="1555" as="targetPoint" />
            <Array as="points">
              <mxPoint x="590" y="1555" />
            </Array>
          </mxGeometry>
        </mxCell>
        <mxCell id="HkFuR2oX_R5OGjLkQj5L-88" value="Resultado de actulizar archivos" style="html=1;verticalAlign=bottom;endArrow=open;dashed=1;endSize=8;curved=0;rounded=0;" edge="1" parent="1">
          <mxGeometry relative="1" as="geometry">
            <mxPoint x="549.5" y="1312" as="sourcePoint" />
            <mxPoint x="385" y="1312" as="targetPoint" />
          </mxGeometry>
        </mxCell>
        <mxCell id="HkFuR2oX_R5OGjLkQj5L-89" value="Resultado de actulizar archivos" style="html=1;verticalAlign=bottom;endArrow=open;dashed=1;endSize=8;curved=0;rounded=0;" edge="1" parent="1">
          <mxGeometry relative="1" as="geometry">
            <mxPoint x="379.5" y="1329.9999999999998" as="sourcePoint" />
            <mxPoint x="129.63043478260863" y="1329.9999999999998" as="targetPoint" />
          </mxGeometry>
        </mxCell>
      </root>
    </mxGraphModel>
  </diagram>
</mxfile>
